<?xml version="1.0" encoding="UTF-8" standalone="no"?>
<!-- Created with Inkscape (http://www.inkscape.org/) -->

<svg
   width="139.99973mm"
   height="42.000023mm"
   viewBox="0 0 139.99973 42.000023"
   version="1.1"
   id="svg5"
   inkscape:version="1.2.2 (732a01da63, 2022-12-09)"
   sodipodi:docname="about.svg"
   xmlns:inkscape="http://www.inkscape.org/namespaces/inkscape"
   xmlns:sodipodi="http://sodipodi.sourceforge.net/DTD/sodipodi-0.dtd"
   xmlns="http://www.w3.org/2000/svg"
   xmlns:svg="http://www.w3.org/2000/svg">
  <sodipodi:namedview
     id="namedview7"
     pagecolor="#ffffff"
     bordercolor="#000000"
     borderopacity="0.25"
     inkscape:showpageshadow="2"
     inkscape:pageopacity="0.0"
     inkscape:pagecheckerboard="true"
     inkscape:deskcolor="#d1d1d1"
     inkscape:document-units="mm"
     showgrid="true"
     inkscape:zoom="1.5625561"
     inkscape:cx="251.19098"
     inkscape:cy="110.07605"
     inkscape:window-width="1920"
     inkscape:window-height="1057"
     inkscape:window-x="-8"
     inkscape:window-y="-8"
     inkscape:window-maximized="1"
     inkscape:current-layer="layer1" />
  <defs
     id="defs2">
    <rect
       x="135.67513"
       y="318.06857"
       width="449.26385"
       height="140.79494"
       id="rect2036" />
  </defs>
  <g
     inkscape:label="Layer 1"
     inkscape:groupmode="layer"
     id="layer1"
     transform="translate(-29.983183,-124.65389)">
    <path
       id="rect234"
       style="fill:#ffffff;fill-opacity:1;stroke:#08205a;stroke-width:0"
       d="m 43.995247,124.65389 c -7.762754,0 -14.012064,6.24931 -14.012064,14.01206 v 13.9759 c 0,7.76275 6.24931,14.01206 14.012064,14.01206 H 155.97084 c 7.76276,0 14.01207,-6.24931 14.01207,-14.01206 v -13.9759 c 0,-7.76275 -6.24931,-14.01206 -14.01207,-14.01206 z m 20.630782,11.80651 c 0.244592,0 0.460909,0.0521 0.649056,0.15555 0.188148,0.10348 0.352917,0.23995 0.494027,0.40928 0.150518,0.15992 0.277374,0.34339 0.380855,0.55035 0.112889,0.20696 0.216502,0.41822 0.310576,0.63459 l 5.658569,14.12523 c 0.04704,0.10349 0.07989,0.21671 0.0987,0.339 0.01881,0.11289 0.02842,0.22105 0.02842,0.32453 0,0.24459 -0.06115,0.47961 -0.183451,0.70538 -0.112889,0.21637 -0.277657,0.39023 -0.494027,0.52194 -0.206962,0.17874 -0.441977,0.29196 -0.705383,0.33899 -0.253999,0.0565 -0.503167,0.0468 -0.747758,-0.0284 -0.244592,-0.0659 -0.470516,-0.18816 -0.677478,-0.3669 -0.206962,-0.17874 -0.362124,-0.40921 -0.465605,-0.69143 l -1.015958,-2.5399 H 61.38075 l -1.044381,2.55385 c -0.17874,0.42333 -0.413755,0.72911 -0.705383,0.91726 -0.291629,0.17874 -0.625712,0.25404 -1.002007,0.22582 -0.244591,-0.009 -0.470515,-0.066 -0.677478,-0.1695 -0.206962,-0.11288 -0.380821,-0.25844 -0.521932,-0.43718 -0.14111,-0.18815 -0.239661,-0.40446 -0.296105,-0.64905 -0.05644,-0.2446 -0.0519,-0.50337 0.01395,-0.77618 0.07526,-0.23519 0.155113,-0.46111 0.239779,-0.67748 l 0.254248,-0.67696 5.263244,-13.16561 c 0.04704,-0.12229 0.07534,-0.24461 0.08475,-0.3669 l 0.05633,-0.3669 c 0.02822,-0.1223 0.07068,-0.23552 0.127124,-0.339 0.05644,-0.11289 0.140843,-0.2069 0.253731,-0.28215 0.112889,-0.0847 0.263505,-0.15037 0.451652,-0.19741 0.197555,-0.047 0.446723,-0.0708 0.747758,-0.0708 z m 11.048938,0 h 7.083806 c 0.611479,0 1.194729,0.0991 1.749764,0.29663 0.555034,0.18814 1.053886,0.45601 1.496032,0.80408 0.442147,0.34808 0.813625,0.76707 1.114661,1.25626 0.310443,0.48918 0.51767,1.03452 0.621151,1.63659 0.103481,0.58326 0.112571,1.17105 0.02791,1.76372 -0.03763,0.32925 -0.112937,0.63049 -0.225826,0.9033 -0.112888,0.26341 -0.239745,0.49842 -0.380855,0.70538 -0.141111,0.20697 -0.28212,0.38134 -0.42323,0.52245 -0.141111,0.14111 -0.263422,0.24421 -0.366903,0.31006 0.169333,0.0753 0.371497,0.20718 0.606681,0.39533 0.244592,0.17874 0.479607,0.41375 0.705384,0.70538 0.235184,0.29163 0.442411,0.63026 0.62115,1.01596 0.17874,0.3857 0.296506,0.8234 0.352951,1.31258 0.07526,0.57385 0.07526,1.13334 0,1.67897 -0.103482,0.71496 -0.324861,1.36897 -0.663526,1.96163 -0.338665,0.59267 -0.766754,1.10515 -1.284159,1.53789 -0.507998,0.42334 -1.086703,0.75287 -1.735812,0.98806 -0.639701,0.23518 -1.316957,0.35295 -2.031917,0.35295 h -6.518982 c -0.592664,0 -1.016208,-0.17892 -1.270207,-0.5364 -0.253998,-0.36689 -0.380855,-0.82329 -0.380855,-1.36891 v -14.39344 c -0.0094,-0.0847 -0.01901,-0.16452 -0.02842,-0.23978 -0.0094,-0.0753 -0.02356,-0.15057 -0.04237,-0.22582 -0.0094,-0.0188 -0.01395,-0.033 -0.01395,-0.0424 0,-0.0188 -0.0045,-0.0375 -0.01395,-0.0563 -0.01882,-0.10348 -0.03803,-0.20203 -0.05684,-0.2961 -0.01882,-0.10348 -0.02791,-0.2071 -0.02791,-0.31058 0,-0.10348 0.01415,-0.19748 0.04237,-0.28215 0.03763,-0.0847 0.09372,-0.15543 0.168981,-0.21187 0.08467,-0.0564 0.197887,-0.0984 0.338998,-0.12661 0.14111,-0.0376 0.319515,-0.0568 0.535884,-0.0568 z m 53.777593,0 h 11.66958 c 0.23518,0 0.4611,0.0425 0.67747,0.12713 0.21637,0.0753 0.39984,0.18796 0.55036,0.33848 0.15992,0.14111 0.28678,0.31549 0.38085,0.52245 0.0941,0.20696 0.14108,0.43237 0.14108,0.67696 0,0.24459 -0.047,0.46597 -0.14108,0.66352 -0.0847,0.19756 -0.20697,0.37142 -0.3669,0.52194 -0.15052,0.15051 -0.33398,0.26828 -0.55035,0.35295 -0.20697,0.0753 -0.43237,0.11265 -0.67697,0.11265 h -4.1491 l -0.0419,13.16561 c 0,0.23518 -0.0425,0.45656 -0.12713,0.66352 -0.0753,0.19756 -0.18342,0.37142 -0.32453,0.52193 -0.14111,0.15052 -0.31548,0.26829 -0.52244,0.35295 -0.19756,0.0847 -0.41388,0.12713 -0.64906,0.12713 -0.24459,0 -0.47,-0.0425 -0.67696,-0.12713 -0.19756,-0.0847 -0.36687,-0.20243 -0.50798,-0.35295 -0.14111,-0.15051 -0.25433,-0.32437 -0.339,-0.52193 -0.0753,-0.20696 -0.11265,-0.42834 -0.11265,-0.66352 l -0.0284,-13.16561 h -4.20491 c -0.24459,0 -0.47051,-0.0374 -0.67747,-0.11265 -0.20697,-0.0847 -0.38589,-0.19737 -0.53641,-0.33848 -0.15051,-0.15052 -0.27282,-0.3249 -0.3669,-0.52245 -0.0847,-0.20696 -0.12661,-0.43289 -0.12661,-0.67748 0,-0.22578 0.0419,-0.43703 0.12661,-0.63459 0.0847,-0.20696 0.20243,-0.38588 0.35295,-0.5364 0.15052,-0.15052 0.32944,-0.26828 0.5364,-0.35295 0.21637,-0.0941 0.44684,-0.14108 0.69143,-0.14108 z M 99.396,136.4749 c 0.82785,0 1.62742,0.10816 2.39882,0.32453 0.7714,0.21637 1.49112,0.52215 2.15904,0.91726 0.67733,0.39511 1.28889,0.8702 1.83451,1.42523 0.55504,0.54563 1.03013,1.15667 1.42524,1.834 0.39511,0.66792 0.70089,1.38764 0.91726,2.15904 0.21637,0.77141 0.32453,1.57097 0.32453,2.39882 0,0.83726 -0.10816,1.64189 -0.32453,2.41329 -0.21637,0.77141 -0.52215,1.49567 -0.91726,2.173 -0.39511,0.66792 -0.8702,1.27947 -1.42524,1.83451 -0.54562,0.54563 -1.15718,1.01617 -1.83451,1.41128 -0.66792,0.39511 -1.38764,0.70089 -2.15904,0.91726 -0.7714,0.21637 -1.57097,0.32453 -2.39882,0.32453 -1.25118,0 -2.427288,-0.23553 -3.52795,-0.7059 -1.100662,-0.47978 -2.064998,-1.12873 -2.892847,-1.94717 -0.81844,-0.82785 -1.467392,-1.79219 -1.947168,-2.89285 -0.470368,-1.10066 -0.705383,-2.27677 -0.705383,-3.52795 0,-0.82785 0.108159,-1.62741 0.324528,-2.39882 0.21637,-0.7714 0.522147,-1.49112 0.917257,-2.15904 0.395109,-0.67733 0.865139,-1.28837 1.410766,-1.834 0.555035,-0.55503 1.166591,-1.03012 1.834514,-1.42523 0.67733,-0.39511 1.40159,-0.70089 2.172994,-0.91726 0.771404,-0.21637 1.576034,-0.32453 2.413289,-0.32453 z m 12.12122,0 c 0.31045,0 0.60207,0.0278 0.87489,0.0842 0.27281,0.047 0.51289,0.14156 0.71985,0.28267 0.21637,0.14111 0.38568,0.33821 0.50798,0.59221 0.12229,0.24459 0.19254,0.56452 0.21135,0.95963 v 9.00307 c 0,0.57385 0.10362,1.11464 0.31058,1.62264 0.20696,0.49859 0.50313,0.93628 0.88883,1.31258 0.39511,0.36689 0.87021,0.65851 1.42524,0.87488 0.55504,0.21637 1.18581,0.32453 1.89136,0.32453 0.64911,0 1.24599,-0.10816 1.79162,-0.32453 0.55503,-0.21637 1.03519,-0.50799 1.43971,-0.87488 0.40451,-0.3763 0.71938,-0.81399 0.94516,-1.31258 0.23518,-0.508 0.35295,-1.04879 0.35295,-1.62264 l -0.014,-9.1581 c -0.009,-0.18815 -0.0377,-0.37161 -0.0847,-0.55035 -0.047,-0.18815 -0.0708,-0.36707 -0.0708,-0.5364 0,-0.10349 0.0142,-0.19749 0.0424,-0.28216 0.0376,-0.0847 0.0988,-0.15491 0.18345,-0.21135 0.0847,-0.0565 0.20244,-0.0989 0.35295,-0.12713 0.15052,-0.0376 0.34308,-0.0563 0.57826,-0.0563 0.30104,0 0.58812,0.0232 0.86093,0.0703 0.28222,0.047 0.53139,0.14105 0.74776,0.28216 0.21637,0.14111 0.38568,0.33873 0.50798,0.59273 0.1317,0.25399 0.19792,0.58353 0.19792,0.98805 l 0.0139,8.97465 c -0.009,1.0254 -0.21611,1.98922 -0.62063,2.89233 -0.39511,0.9031 -0.94551,1.69358 -1.65106,2.37091 -0.69615,0.67733 -1.52402,1.21358 -2.48357,1.60869 -0.95015,0.39511 -1.98018,0.59273 -3.09025,0.59273 -1.13829,0 -2.18755,-0.19308 -3.1471,-0.57878 -0.95955,-0.39511 -1.78742,-0.9263 -2.48357,-1.59422 -0.69614,-0.67733 -1.24148,-1.46781 -1.63659,-2.37091 -0.3857,-0.91252 -0.57877,-1.88594 -0.57877,-2.92075 l 0.0139,-9.14415 c -0.009,-0.18815 -0.0372,-0.37161 -0.0842,-0.55035 -0.047,-0.18815 -0.0708,-0.36707 -0.0708,-0.5364 0,-0.10349 0.0142,-0.19749 0.0424,-0.28216 0.0376,-0.0847 0.0988,-0.15491 0.18345,-0.21135 0.0847,-0.0565 0.20244,-0.0989 0.35295,-0.12713 0.15052,-0.0376 0.34308,-0.0563 0.57826,-0.0563 z m -33.471338,2.92076 v 4.14858 h 4.642611 c 0.272813,0 0.531588,-0.0515 0.77618,-0.15503 0.253999,-0.11289 0.470316,-0.2635 0.649056,-0.45165 0.188147,-0.18815 0.333701,-0.40901 0.437182,-0.66301 0.112889,-0.254 0.169499,-0.52238 0.169499,-0.8046 0,-0.29163 -0.05661,-0.56456 -0.169499,-0.81856 -0.112888,-0.254 -0.263504,-0.47031 -0.451652,-0.64905 -0.188147,-0.18815 -0.404464,-0.3337 -0.649056,-0.43719 -0.244591,-0.11288 -0.502849,-0.16949 -0.775663,-0.16949 z m 21.350118,0.3669 c -0.790219,0 -1.538238,0.15516 -2.243791,0.4656 -0.696145,0.30104 -1.303155,0.71952 -1.82056,1.25574 -0.517405,0.52681 -0.92628,1.14343 -1.227316,1.84898 -0.301035,0.69615 -0.451652,1.43911 -0.451652,2.22932 0,0.79022 0.150617,1.53824 0.451652,2.2438 0.301036,0.69614 0.709911,1.3077 1.227316,1.83451 0.517405,0.52681 1.124415,0.94529 1.82056,1.25574 0.705553,0.30103 1.453572,0.45165 2.243791,0.45165 0.79022,0 1.53318,-0.15062 2.22932,-0.45165 0.69615,-0.31045 1.30316,-0.72893 1.82056,-1.25574 0.52681,-0.53622 0.94075,-1.15738 1.24179,-1.86294 0.30103,-0.70555 0.45165,-1.45357 0.45165,-2.24379 0,-0.79022 -0.15062,-1.53317 -0.45165,-2.22932 -0.30104,-0.69614 -0.71498,-1.3077 -1.24179,-1.83451 -0.5174,-0.52681 -1.12441,-0.94075 -1.82056,-1.24179 -0.69614,-0.31044 -1.4391,-0.4656 -2.22932,-0.4656 z m -34.727596,1.94717 -2.567802,6.56187 h 5.136121 z m 13.377478,4.48758 v 5.33404 h 4.72736 c 0.35748,0 0.696108,-0.0662 1.015959,-0.19792 0.329258,-0.1317 0.615821,-0.31011 0.860412,-0.53589 0.253999,-0.23518 0.456681,-0.51772 0.607199,-0.84697 0.150517,-0.32926 0.225826,-0.69113 0.225826,-1.08624 0,-0.39511 -0.07531,-0.7575 -0.225826,-1.08676 -0.141111,-0.32925 -0.33873,-0.61127 -0.592729,-0.84646 -0.244592,-0.23518 -0.531672,-0.4141 -0.86093,-0.5364 -0.31985,-0.1317 -0.658478,-0.1974 -1.015958,-0.1974 z" />
  </g>
</svg>
