<?xml version="1.0" encoding="UTF-8" standalone="no"?>
<!-- Created with Inkscape (http://www.inkscape.org/) -->

<svg
   width="139.99973mm"
   height="42.000023mm"
   viewBox="0 0 139.99973 42.000023"
   version="1.1"
   id="svg5"
   inkscape:version="1.2.2 (732a01da63, 2022-12-09)"
   sodipodi:docname="contact.svg"
   xmlns:inkscape="http://www.inkscape.org/namespaces/inkscape"
   xmlns:sodipodi="http://sodipodi.sourceforge.net/DTD/sodipodi-0.dtd"
   xmlns="http://www.w3.org/2000/svg"
   xmlns:svg="http://www.w3.org/2000/svg">
  <sodipodi:namedview
     id="namedview7"
     pagecolor="#ffffff"
     bordercolor="#000000"
     borderopacity="0.25"
     inkscape:showpageshadow="2"
     inkscape:pageopacity="0.0"
     inkscape:pagecheckerboard="true"
     inkscape:deskcolor="#d1d1d1"
     inkscape:document-units="mm"
     showgrid="true"
     inkscape:zoom="1.104894"
     inkscape:cx="91.864015"
     inkscape:cy="58.829172"
     inkscape:window-width="1920"
     inkscape:window-height="1057"
     inkscape:window-x="-8"
     inkscape:window-y="-8"
     inkscape:window-maximized="1"
     inkscape:current-layer="layer1" />
  <defs
     id="defs2">
    <rect
       x="135.67513"
       y="318.06857"
       width="449.26385"
       height="140.79494"
       id="rect2036" />
  </defs>
  <g
     inkscape:label="Layer 1"
     inkscape:groupmode="layer"
     id="layer1"
     transform="translate(-29.983183,-124.65389)">
    <path
       id="rect234"
       style="fill:#ffffff;fill-opacity:1;stroke:#08205a;stroke-width:0"
       d="m 43.995247,124.65389 c -7.762754,0 -14.012064,6.24931 -14.012064,14.01206 v 13.9759 c 0,7.76275 6.24931,14.01206 14.012064,14.01206 H 155.97084 c 7.76276,0 14.01207,-6.24931 14.01207,-14.01206 v -13.9759 c 0,-7.76275 -6.24931,-14.01206 -14.01207,-14.01206 z m 55.232805,11.90987 h 11.670088 c 0.23518,0 0.46111,0.0419 0.67748,0.1266 0.21637,0.0753 0.39983,0.18848 0.55035,0.339 0.15993,0.14111 0.28678,0.31497 0.38086,0.52193 0.0941,0.20697 0.14107,0.43289 0.14107,0.67748 0,0.24459 -0.047,0.46546 -0.14107,0.66301 -0.0847,0.19756 -0.20698,0.37141 -0.3669,0.52193 -0.15052,0.15052 -0.33399,0.26829 -0.55036,0.35295 -0.20696,0.0753 -0.43289,0.11317 -0.67748,0.11317 h -4.14858 l -0.0424,13.16561 c 0,0.23518 -0.0425,0.45605 -0.12712,0.66301 -0.0753,0.19755 -0.18342,0.37141 -0.32453,0.52193 -0.14111,0.15052 -0.31497,0.26828 -0.52193,0.35295 -0.19755,0.0847 -0.41387,0.12712 -0.64906,0.12712 -0.24459,0 -0.47051,-0.0425 -0.67747,-0.12712 -0.19756,-0.0847 -0.36687,-0.20243 -0.50798,-0.35295 -0.14111,-0.15052 -0.25382,-0.32438 -0.33848,-0.52193 -0.0753,-0.20696 -0.11317,-0.42783 -0.11317,-0.66301 l -0.0279,-13.16561 h -4.205428 c -0.244592,0 -0.469999,-0.0379 -0.676962,-0.11317 -0.206962,-0.0847 -0.385883,-0.19737 -0.536401,-0.33848 -0.150518,-0.15052 -0.272829,-0.32489 -0.366903,-0.52245 -0.08467,-0.20696 -0.127124,-0.43237 -0.127124,-0.67696 0,-0.22577 0.04246,-0.43755 0.127124,-0.6351 0.08467,-0.20696 0.202433,-0.38588 0.35295,-0.5364 0.150518,-0.15052 0.328923,-0.26777 0.535885,-0.35244 0.21637,-0.0941 0.446839,-0.14107 0.691431,-0.14107 z m 19.022098,0 c 0.24459,0 0.46091,0.0515 0.64905,0.15503 0.18815,0.10348 0.3524,0.23994 0.49351,0.40927 0.15052,0.15993 0.27789,0.3434 0.38137,0.55036 0.11289,0.20696 0.21599,0.41873 0.31006,0.6351 l 5.65857,14.12472 c 0.047,0.10348 0.0799,0.2167 0.0987,0.339 0.0188,0.11289 0.0284,0.22104 0.0284,0.32453 0,0.24459 -0.0612,0.4796 -0.18345,0.70538 -0.11289,0.21637 -0.27766,0.39074 -0.49403,0.52245 -0.20696,0.17874 -0.44198,0.29144 -0.70538,0.33848 -0.254,0.0564 -0.50317,0.0468 -0.74776,-0.0284 -0.24459,-0.0658 -0.47052,-0.18817 -0.67748,-0.36691 -0.20696,-0.17874 -0.36212,-0.40921 -0.46561,-0.69143 l -1.01595,-2.53989 h -6.57583 l -1.04438,2.55436 c -0.17874,0.42333 -0.41376,0.7286 -0.70538,0.91674 -0.29163,0.17874 -0.62572,0.25405 -1.00201,0.22583 -0.24459,-0.009 -0.47,-0.0655 -0.67696,-0.16898 -0.20696,-0.11289 -0.38134,-0.25896 -0.52245,-0.4377 -0.14111,-0.18815 -0.23966,-0.40447 -0.29611,-0.64906 -0.0564,-0.24459 -0.0519,-0.50337 0.014,-0.77618 0.0753,-0.23518 0.15511,-0.46059 0.23978,-0.67696 l 0.25424,-0.67748 5.26325,-13.1656 c 0.047,-0.1223 0.0753,-0.24461 0.0847,-0.36691 l 0.0563,-0.3669 c 0.0282,-0.12229 0.0707,-0.23551 0.12713,-0.339 0.0564,-0.11288 0.14084,-0.20689 0.25373,-0.28215 0.11289,-0.0847 0.2635,-0.15037 0.45165,-0.1974 0.19756,-0.047 0.44724,-0.0703 0.74828,-0.0703 z m 26.73997,0 h 11.67009 c 0.23518,0 0.4611,0.0419 0.67747,0.1266 0.21637,0.0753 0.39984,0.18848 0.55036,0.339 0.15992,0.14111 0.28678,0.31497 0.38085,0.52193 0.0941,0.20697 0.14108,0.43289 0.14108,0.67748 0,0.24459 -0.047,0.46546 -0.14108,0.66301 -0.0847,0.19756 -0.20698,0.37141 -0.3669,0.52193 -0.15052,0.15052 -0.33398,0.26829 -0.55035,0.35295 -0.20697,0.0753 -0.43289,0.11317 -0.67748,0.11317 h -4.14859 l -0.0424,13.16561 c 0,0.23518 -0.0425,0.45605 -0.12712,0.66301 -0.0753,0.19755 -0.18342,0.37141 -0.32453,0.52193 -0.14111,0.15052 -0.31497,0.26828 -0.52193,0.35295 -0.19756,0.0847 -0.41388,0.12712 -0.64906,0.12712 -0.24459,0 -0.47052,-0.0425 -0.67748,-0.12712 -0.19755,-0.0847 -0.36687,-0.20243 -0.50798,-0.35295 -0.14111,-0.15052 -0.25381,-0.32438 -0.33848,-0.52193 -0.0753,-0.20696 -0.11317,-0.42783 -0.11317,-0.66301 l -0.0279,-13.16561 h -4.20542 c -0.2446,0 -0.47,-0.0379 -0.67696,-0.11317 -0.20697,-0.0847 -0.38589,-0.19737 -0.53641,-0.33848 -0.15051,-0.15052 -0.27283,-0.32489 -0.3669,-0.52245 -0.0847,-0.20696 -0.12712,-0.43237 -0.12712,-0.67696 0,-0.22577 0.0425,-0.43755 0.12712,-0.6351 0.0847,-0.20696 0.20243,-0.38588 0.35295,-0.5364 0.15052,-0.15052 0.32892,-0.26777 0.53589,-0.35244 0.21637,-0.0941 0.44683,-0.14107 0.69143,-0.14107 z m -77.300195,0.0139 c 0.827848,0 1.627416,0.10816 2.39882,0.32453 0.771404,0.21637 1.491118,0.52215 2.159041,0.91725 0.677331,0.39511 1.288887,0.87021 1.834514,1.42524 0.555034,0.54563 1.030126,1.15718 1.425236,1.83451 0.395109,0.66793 0.700887,1.38764 0.917256,2.15905 0.21637,0.7714 0.324528,1.57097 0.324528,2.39882 0,0.83725 -0.108158,1.64136 -0.324528,2.41277 -0.216369,0.7714 -0.522147,1.49566 -0.917256,2.17299 -0.39511,0.66792 -0.870202,1.27948 -1.425236,1.83452 -0.545627,0.54562 -1.157183,1.01617 -1.834514,1.41128 -0.667923,0.39511 -1.387637,0.70089 -2.159041,0.91726 -0.771404,0.21636 -1.570972,0.32452 -2.39882,0.32452 -1.25118,0 -2.427288,-0.23553 -3.52795,-0.7059 -1.100662,-0.47977 -2.064482,-1.12872 -2.89233,-1.94716 -0.818441,-0.82785 -1.467909,-1.79219 -1.947685,-2.89285 -0.470368,-1.10066 -0.705383,-2.27625 -0.705383,-3.52743 0,-0.82785 0.108159,-1.62742 0.324528,-2.39882 0.21637,-0.77141 0.522147,-1.49112 0.917257,-2.15905 0.395109,-0.67733 0.865656,-1.28888 1.411283,-1.83451 0.555035,-0.55503 1.166074,-1.03013 1.833997,-1.42524 0.67733,-0.3951 1.402106,-0.70088 2.173511,-0.91725 0.771404,-0.21637 1.575516,-0.32453 2.412772,-0.32453 z m 12.812655,0 c 0.253999,0 0.475378,0.0142 0.663525,0.0424 0.197555,0.0188 0.376476,0.0613 0.536402,0.12713 0.159925,0.0564 0.310024,0.1363 0.451135,0.23978 0.14111,0.10348 0.291727,0.23488 0.451652,0.39481 l 9.44025,11.13368 -0.01395,-10.13168 c 0,-0.21637 -0.02376,-0.40893 -0.0708,-0.57826 -0.04704,-0.17874 -0.07028,-0.3622 -0.07028,-0.55035 0,-0.1223 0.01415,-0.22591 0.04238,-0.31058 0.02822,-0.0847 0.09392,-0.15543 0.197404,-0.21187 0.103481,-0.0564 0.249552,-0.0938 0.437699,-0.11266 0.188148,-0.0282 0.446406,-0.0424 0.775663,-0.0424 0.301036,0 0.573964,0.0283 0.818555,0.0848 0.253999,0.047 0.465771,0.13598 0.635103,0.26768 0.17874,0.13171 0.315204,0.30608 0.409278,0.52245 0.103481,0.21637 0.155029,0.48424 0.155029,0.80409 v 14.63321 c 0,0.24459 -0.0374,0.48013 -0.112655,0.7059 -0.07526,0.21637 -0.188479,0.40893 -0.338997,0.57826 -0.14111,0.15993 -0.31497,0.29185 -0.521932,0.39533 -0.197555,0.0941 -0.423479,0.14107 -0.677478,0.14107 -0.272814,0 -0.540679,-0.0753 -0.804085,-0.22582 -0.253999,-0.15993 -0.474861,-0.34794 -0.663009,-0.56431 l -9.440767,-11.09131 v 2.4691 c 0,0.87488 -0.0045,1.75937 -0.01395,2.65307 v 2.63859 2.45567 c 0,0.23518 -0.04246,0.45605 -0.127124,0.66301 -0.08467,0.19755 -0.201915,0.37141 -0.352433,0.52193 -0.141111,0.15052 -0.310425,0.26828 -0.50798,0.35295 -0.197554,0.0847 -0.413871,0.12712 -0.649055,0.12712 -0.235185,0 -0.456564,-0.047 -0.663526,-0.14107 -0.197555,-0.0847 -0.371414,-0.19789 -0.521932,-0.339 -0.14111,-0.15052 -0.254331,-0.32438 -0.338997,-0.52193 -0.08467,-0.20696 -0.126608,-0.42328 -0.126608,-0.64906 v -14.71796 c -0.0094,-0.18815 -0.03771,-0.36656 -0.08475,-0.53589 -0.04704,-0.17874 -0.0708,-0.36727 -0.0708,-0.56482 0,-0.0941 0.01415,-0.18354 0.04237,-0.2682 0.03763,-0.0847 0.09879,-0.15491 0.183451,-0.21136 0.08467,-0.0564 0.202433,-0.0989 0.35295,-0.12712 0.150518,-0.0376 0.343076,-0.0563 0.57826,-0.0563 z m -29.873112,0.0139 c 0.649108,0 1.260664,0.0521 1.834513,0.15555 0.583257,0.0941 1.133657,0.25378 1.651062,0.47956 0.526813,0.21637 1.03021,0.50345 1.509985,0.86093 0.489184,0.35748 0.968821,0.79011 1.439189,1.29811 0.310443,0.33866 0.475212,0.73845 0.494027,1.19941 0.0094,0.20696 -0.03305,0.41873 -0.127124,0.6351 -0.08467,0.21637 -0.22113,0.40438 -0.409278,0.56431 -0.131703,0.12229 -0.282319,0.22084 -0.451652,0.2961 -0.169332,0.0753 -0.352282,0.11772 -0.549837,0.12713 -0.188147,0.009 -0.390828,-0.0189 -0.607198,-0.0848 -0.206962,-0.0753 -0.413672,-0.19757 -0.620634,-0.3669 -0.564442,-0.57385 -1.185605,-1.02973 -1.862935,-1.3684 -0.677331,-0.33866 -1.444048,-0.50798 -2.300118,-0.50798 -0.790219,0 -1.537722,0.15517 -2.243274,0.46561 -0.696145,0.30103 -1.303156,0.71952 -1.820561,1.25574 -0.517405,0.52681 -0.926796,1.14291 -1.227832,1.84846 -0.301036,0.69615 -0.451135,1.43962 -0.451135,2.22984 0,0.79022 0.150099,1.53772 0.451135,2.24327 0.301036,0.69615 0.710427,1.3077 1.227832,1.83452 0.526813,0.52681 1.138368,0.94529 1.834513,1.25573 0.696146,0.30104 1.439103,0.45166 2.229322,0.45166 0.507998,0 0.968937,-0.0561 1.382861,-0.16899 0.423332,-0.12229 0.81857,-0.28706 1.185457,-0.49402 0.366888,-0.20696 0.715123,-0.44198 1.044381,-0.70539 0.329258,-0.27281 0.663341,-0.55989 1.002006,-0.86092 0.131703,-0.0847 0.277258,-0.15037 0.437183,-0.19741 0.169332,-0.0564 0.338647,-0.0847 0.507979,-0.0847 0.169333,0 0.334102,0.0232 0.494027,0.0703 0.159925,0.047 0.310541,0.12689 0.451652,0.23978 0.206962,0.1317 0.371214,0.30608 0.49351,0.52245 0.122296,0.21637 0.183451,0.45138 0.183451,0.70538 0,0.21637 -0.04194,0.42814 -0.126607,0.63511 -0.07526,0.20696 -0.202632,0.39952 -0.381372,0.57826 -0.470369,0.52681 -0.945461,0.9832 -1.425236,1.3689 -0.470369,0.3763 -0.973249,0.68662 -1.509469,0.93121 -0.526812,0.24459 -1.09591,0.42806 -1.707389,0.55036 -0.611479,0.11289 -1.289252,0.1695 -2.032434,0.1695 -1.25118,0 -2.426772,-0.23502 -3.527433,-0.70539 -1.100662,-0.47977 -2.064999,-1.12924 -2.892847,-1.94768 -0.818441,-0.82785 -1.467392,-1.79167 -1.947168,-2.89233 -0.470368,-1.10066 -0.7059,-2.27677 -0.7059,-3.52795 0,-0.82785 0.108158,-1.62742 0.324528,-2.39882 0.216369,-0.77141 0.522147,-1.49112 0.917256,-2.15904 0.39511,-0.67733 0.865657,-1.28889 1.411284,-1.83452 0.555034,-0.55503 1.16659,-1.03012 1.834513,-1.42523 0.677331,-0.39511 1.40159,-0.70089 2.172994,-0.91726 0.771404,-0.21637 1.575517,-0.32453 2.412773,-0.32453 z m 84.172642,0 c 0.64911,0 1.26066,0.0521 1.83451,0.15555 0.58326,0.0941 1.13366,0.25378 1.65106,0.47956 0.52682,0.21637 1.03021,0.50345 1.50999,0.86093 0.48918,0.35748 0.96882,0.79011 1.43919,1.29811 0.31044,0.33866 0.47521,0.73845 0.49402,1.19941 0.009,0.20696 -0.0331,0.41873 -0.12712,0.6351 -0.0847,0.21637 -0.22113,0.40438 -0.40928,0.56431 -0.1317,0.12229 -0.28232,0.22084 -0.45165,0.2961 -0.16933,0.0753 -0.3528,0.11772 -0.55035,0.12713 -0.18815,0.009 -0.39032,-0.0189 -0.60668,-0.0848 -0.20697,-0.0753 -0.41368,-0.19757 -0.62064,-0.3669 -0.56444,-0.57385 -1.1856,-1.02973 -1.86293,-1.3684 -0.67733,-0.33866 -1.44405,-0.50798 -2.30012,-0.50798 -0.79022,0 -1.53824,0.15517 -2.24379,0.46561 -0.69615,0.30103 -1.30264,0.71952 -1.82005,1.25574 -0.5174,0.52681 -0.92679,1.14291 -1.22783,1.84846 -0.30103,0.69615 -0.45165,1.43962 -0.45165,2.22984 0,0.79022 0.15062,1.53772 0.45165,2.24327 0.30104,0.69615 0.71043,1.3077 1.22783,1.83452 0.52682,0.52681 1.13837,0.94529 1.83452,1.25573 0.69614,0.30104 1.4391,0.45166 2.22932,0.45166 0.508,0 0.96893,-0.0561 1.38286,-0.16899 0.42333,-0.12229 0.81857,-0.28706 1.18546,-0.49402 0.36688,-0.20696 0.71512,-0.44198 1.04438,-0.70539 0.32925,-0.27281 0.66282,-0.55989 1.00149,-0.86092 0.1317,-0.0847 0.27777,-0.15037 0.4377,-0.19741 0.16933,-0.0564 0.33864,-0.0847 0.50798,-0.0847 0.16933,0 0.3341,0.0232 0.49402,0.0703 0.15993,0.047 0.31003,0.12689 0.45114,0.23978 0.20696,0.1317 0.37173,0.30608 0.49402,0.52245 0.1223,0.21637 0.18346,0.45138 0.18346,0.70538 0,0.21637 -0.0425,0.42814 -0.12713,0.63511 -0.0753,0.20696 -0.20211,0.39952 -0.38085,0.57826 -0.47037,0.52681 -0.94546,0.9832 -1.42524,1.3689 -0.47037,0.3763 -0.97377,0.68662 -1.50999,0.93121 -0.52681,0.24459 -1.09591,0.42806 -1.70738,0.55036 -0.61148,0.11289 -1.28874,0.1695 -2.03192,0.1695 -1.25118,0 -2.42677,-0.23502 -3.52744,-0.70539 -1.10066,-0.47977 -2.06499,-1.12924 -2.89284,-1.94768 -0.81844,-0.82785 -1.46791,-1.79167 -1.94769,-2.89233 -0.47037,-1.10066 -0.70538,-2.27677 -0.70538,-3.52795 0,-0.82785 0.10816,-1.62742 0.32453,-2.39882 0.21637,-0.77141 0.52215,-1.49112 0.91725,-2.15904 0.39511,-0.67733 0.86566,-1.28889 1.41129,-1.83452 0.55503,-0.55503 1.16659,-1.03012 1.83451,-1.42523 0.67733,-0.39511 1.40159,-0.70089 2.173,-0.91726 0.7714,-0.21637 1.57551,-0.32453 2.41277,-0.32453 z m -67.112185,3.2737 c -0.790219,0 -1.538238,0.15517 -2.243791,0.46561 -0.696145,0.30103 -1.302638,0.72003 -1.820044,1.25625 -0.517405,0.52682 -0.926796,1.14292 -1.227832,1.84847 -0.301035,0.69614 -0.451652,1.4391 -0.451652,2.22932 0,0.79022 0.150617,1.53824 0.451652,2.24379 0.301036,0.69615 0.710427,1.3077 1.227832,1.83451 0.517406,0.52682 1.123899,0.9453 1.820044,1.25574 0.705553,0.30104 1.453572,0.45165 2.243791,0.45165 0.790219,0 1.533176,-0.15061 2.229321,-0.45165 0.696146,-0.31044 1.303156,-0.72892 1.820561,-1.25574 0.526813,-0.53622 0.940749,-1.15738 1.241785,-1.86293 0.301036,-0.70555 0.451652,-1.45306 0.451652,-2.24327 0,-0.79022 -0.150616,-1.5337 -0.451652,-2.22984 -0.301036,-0.69615 -0.714972,-1.3077 -1.241785,-1.83452 -0.517405,-0.52681 -1.124415,-0.94075 -1.820561,-1.24178 -0.696145,-0.31044 -1.439102,-0.46561 -2.229321,-0.46561 z m 50.602075,1.94769 -2.5678,6.56136 h 5.13612 z" />
  </g>
</svg>
