<?xml version="1.0" encoding="UTF-8" standalone="no"?>
<!-- Created with Inkscape (http://www.inkscape.org/) -->

<svg
   width="139.99973mm"
   height="42.000023mm"
   viewBox="0 0 139.99973 42.000023"
   version="1.1"
   id="svg5"
   inkscape:version="1.2.2 (732a01da63, 2022-12-09)"
   sodipodi:docname="home.svg"
   xmlns:inkscape="http://www.inkscape.org/namespaces/inkscape"
   xmlns:sodipodi="http://sodipodi.sourceforge.net/DTD/sodipodi-0.dtd"
   xmlns="http://www.w3.org/2000/svg"
   xmlns:svg="http://www.w3.org/2000/svg">
  <sodipodi:namedview
     id="namedview7"
     pagecolor="#ffffff"
     bordercolor="#000000"
     borderopacity="0.25"
     inkscape:showpageshadow="2"
     inkscape:pageopacity="0.0"
     inkscape:pagecheckerboard="true"
     inkscape:deskcolor="#d1d1d1"
     inkscape:document-units="mm"
     showgrid="true"
     inkscape:zoom="2.209788"
     inkscape:cx="243.68853"
     inkscape:cy="123.08873"
     inkscape:window-width="1920"
     inkscape:window-height="1057"
     inkscape:window-x="-8"
     inkscape:window-y="-8"
     inkscape:window-maximized="1"
     inkscape:current-layer="layer1" />
  <defs
     id="defs2">
    <rect
       x="135.67513"
       y="318.06857"
       width="449.26385"
       height="140.79494"
       id="rect2036" />
  </defs>
  <g
     inkscape:label="Layer 1"
     inkscape:groupmode="layer"
     id="layer1"
     transform="translate(-25.06447,-124.72679)">
    <path
       id="rect2137"
       style="fill:#fcfcff;fill-opacity:1;stroke:#08205a;stroke-width:0"
       d="m 59.87165,136.65325 c -0.235184,0 -0.428258,0.0192 -0.578776,0.0568 -0.141111,0.0282 -0.253811,0.0702 -0.338481,0.12661 -0.07526,0.0564 -0.127326,0.12717 -0.155546,0.21187 -0.02822,0.0847 -0.04237,0.17867 -0.04237,0.28215 0,0.16933 0.02376,0.34826 0.0708,0.5364 0.04704,0.17874 0.07535,0.36221 0.08475,0.55036 v 14.63321 c 0,0.22578 0.03739,0.44664 0.112655,0.66301 0.07526,0.20696 0.183418,0.39498 0.324528,0.56431 0.150518,0.15992 0.324894,0.28727 0.522449,0.38137 0.206962,0.0941 0.437432,0.14108 0.69143,0.14108 0.253999,0 0.484469,-0.047 0.691431,-0.14108 0.206962,-0.0941 0.380822,-0.22145 0.521932,-0.38137 0.141111,-0.15993 0.249268,-0.34339 0.324528,-0.55036 0.08466,-0.21637 0.127124,-0.44177 0.127124,-0.67696 v -5.46116 h 8.39587 v 5.46116 c 0,0.23519 0.03791,0.46059 0.113171,0.67696 0.08467,0.20697 0.197371,0.39043 0.338481,0.55036 0.150518,0.15992 0.324378,0.28727 0.521932,0.38137 0.206962,0.0941 0.432887,0.14108 0.677478,0.14108 0.235184,0 0.456047,-0.047 0.663009,-0.14108 0.206961,-0.0847 0.381338,-0.20698 0.522448,-0.3669 0.150518,-0.15993 0.267764,-0.34339 0.352434,-0.55036 0.08466,-0.21637 0.127124,-0.44684 0.127124,-0.69143 v -14.73191 c 0,-0.33867 -0.0657,-0.6116 -0.197404,-0.81856 -0.122296,-0.21637 -0.291611,-0.38568 -0.50798,-0.50798 -0.216369,-0.1317 -0.465537,-0.2212 -0.747758,-0.2682 -0.272813,-0.047 -0.559893,-0.0708 -0.860929,-0.0708 -0.235184,0 -0.428258,0.0192 -0.578776,0.0568 -0.150518,0.0282 -0.267763,0.0702 -0.352433,0.12661 -0.08467,0.0564 -0.145822,0.12717 -0.183452,0.21187 -0.02823,0.0847 -0.04237,0.17867 -0.04237,0.28215 0,0.16933 0.02324,0.34826 0.07028,0.5364 0.04704,0.17874 0.07535,0.36221 0.08475,0.55036 v 5.84202 h -8.39587 v -5.94072 c 0,-0.31045 -0.06116,-0.57428 -0.183451,-0.79065 -0.112888,-0.21637 -0.273113,-0.38569 -0.480074,-0.50798 -0.206962,-0.13171 -0.456131,-0.22576 -0.747758,-0.28216 -0.282221,-0.0565 -0.59709,-0.0848 -0.945162,-0.0848 z m 38.311356,0 c -0.253998,0 -0.456163,0.0192 -0.606681,0.0568 -0.150518,0.0282 -0.26828,0.0752 -0.35295,0.14107 -0.08467,0.0565 -0.141279,0.12666 -0.169499,0.21136 -0.02822,0.0847 -0.04186,0.17867 -0.04186,0.28215 0,0.19756 0.02324,0.38103 0.07028,0.55036 0.05644,0.15992 0.08475,0.33885 0.08475,0.5364 0.0095,1.11948 0.01395,2.31428 0.01395,3.58428 v 3.82405 3.81011 3.48557 c 0,0.23519 0.04245,0.45605 0.127124,0.66301 0.08467,0.19756 0.197371,0.37141 0.338481,0.52193 0.150518,0.15052 0.324894,0.26825 0.522449,0.35295 0.206961,0.0846 0.427824,0.12713 0.663008,0.12713 0.244591,0 0.465455,-0.047 0.663009,-0.14108 0.206962,-0.0847 0.385888,-0.20243 0.536403,-0.35295 0.15052,-0.15052 0.26318,-0.32438 0.33848,-0.52193 0.0846,-0.20696 0.12713,-0.42328 0.12713,-0.64906 0,-1.63688 -0.005,-3.40586 -0.0139,-5.30613 v -5.99705 l 4.19095,5.33404 c 0.25399,0.30103 0.47487,0.53605 0.66301,0.70538 0.18815,0.15998 0.42368,0.23978 0.7059,0.23978 0.254,0 0.48902,-0.0889 0.70539,-0.26768 0.21637,-0.18815 0.43268,-0.41408 0.64905,-0.67748 l 4.12068,-5.30562 v 11.27476 c 0,0.29163 0.0516,0.5408 0.15503,0.74776 0.10348,0.20696 0.23539,0.38082 0.39532,0.52193 0.16933,0.1317 0.34774,0.23072 0.53589,0.29662 0.19756,0.0659 0.38102,0.0987 0.55035,0.0987 0.2446,0 0.47052,-0.047 0.67748,-0.14108 0.20696,-0.0847 0.38082,-0.20243 0.52193,-0.35295 0.15052,-0.15052 0.2637,-0.32438 0.339,-0.52193 0.0847,-0.20696 0.12661,-0.42328 0.12661,-0.64906 v -13.16612 c 0,-0.40452 -0.005,-0.8043 -0.014,-1.19941 0,-0.40452 -0.0515,-0.76184 -0.15503,-1.07229 -0.10348,-0.31044 -0.27786,-0.55961 -0.52245,-0.74775 -0.23519,-0.19753 -0.5829,-0.29663 -1.04387,-0.29663 -0.23518,0 -0.43281,0.0142 -0.59273,0.0424 -0.15052,0.0282 -0.28243,0.0707 -0.39532,0.12712 -0.10348,0.0565 -0.18793,0.12718 -0.25373,0.21188 -0.0658,0.0753 -0.12705,0.15507 -0.18345,0.23977 -0.0376,0.047 -0.0897,0.12235 -0.15555,0.22583 -0.0658,0.0941 -0.17401,0.24469 -0.32453,0.45165 -0.15051,0.19756 -0.35722,0.46088 -0.62063,0.79014 -0.254,0.32924 -0.58808,0.75228 -1.00201,1.26969 -0.40451,0.50798 -0.8983,1.11955 -1.48156,1.83451 -0.58326,0.71496 -1.27466,1.56153 -2.07429,2.5399 l -5.84202,-7.14014 c -0.1317,-0.14111 -0.258567,-0.24923 -0.380863,-0.32453 -0.122295,-0.0847 -0.258759,-0.14585 -0.409277,-0.18345 -0.14111,-0.0377 -0.305879,-0.0613 -0.494027,-0.0703 -0.188147,-0.01 -0.418618,-0.0145 -0.691431,-0.0145 z m 20.954794,0 c -0.42333,0 -0.70535,0.0662 -0.84646,0.19792 -0.14107,0.1223 -0.21187,0.28655 -0.21187,0.49351 0,0.18815 0.0238,0.38577 0.0708,0.59273 0.0564,0.19756 0.0897,0.39063 0.0987,0.57878 v 14.35106 c 0,0.58326 0.16477,1.05329 0.49402,1.41077 0.32926,0.34807 0.79019,0.52245 1.38286,0.52245 h 9.46816 c 0.24459,0 0.47506,-0.0424 0.69143,-0.12713 0.21637,-0.0753 0.40489,-0.18342 0.56482,-0.32453 0.15992,-0.15051 0.28676,-0.32943 0.38086,-0.5364 0.0941,-0.20696 0.14108,-0.43237 0.14108,-0.67696 0,-0.2634 -0.047,-0.49894 -0.14108,-0.7059 -0.0941,-0.20696 -0.226,-0.38082 -0.39533,-0.52193 -0.15993,-0.14111 -0.35248,-0.24923 -0.57825,-0.32453 -0.21637,-0.0753 -0.44685,-0.11317 -0.69144,-0.11317 h -8.00106 v -4.20491 h 6.29368 c 0.35747,0 0.66779,-0.0895 0.9312,-0.2682 0.2634,-0.18815 0.45142,-0.44692 0.56431,-0.77618 0.094,-0.26341 0.11273,-0.51712 0.0563,-0.76171 -0.047,-0.24459 -0.14559,-0.46091 -0.29611,-0.64906 -0.14111,-0.18815 -0.32457,-0.33876 -0.55035,-0.45165 -0.22578,-0.12235 -0.46585,-0.18345 -0.71985,-0.18345 h -6.27921 v -4.34651 h 8.08581 c 0.37629,0 0.68662,-0.0753 0.93121,-0.22582 0.2446,-0.15993 0.42806,-0.35703 0.55036,-0.59221 0.12225,-0.23519 0.18345,-0.48942 0.18345,-0.76223 0,-0.28222 -0.0662,-0.541 -0.19792,-0.77618 -0.1223,-0.23519 -0.31031,-0.42774 -0.56431,-0.57826 -0.24459,-0.1599 -0.55038,-0.2403 -0.91726,-0.2403 z m -33.626372,0.0145 c -0.837255,0 -1.641886,0.10816 -2.413289,0.32453 -0.771403,0.21637 -1.495664,0.52215 -2.172994,0.91726 -0.667922,0.39511 -1.279479,0.8702 -1.834513,1.42523 -0.545627,0.54563 -1.016175,1.15719 -1.411284,1.83452 -0.395109,0.66792 -0.700371,1.38712 -0.91674,2.15852 -0.216369,0.77141 -0.325044,1.57149 -0.325044,2.39934 0,1.25118 0.235532,2.42677 0.7059,3.52743 0.479775,1.10066 1.128727,2.065 1.947168,2.89285 0.827847,0.81844 1.792185,1.46739 2.892846,1.94717 1.100661,0.47036 2.276772,0.7059 3.52795,0.7059 0.827848,0 1.627417,-0.10816 2.39882,-0.32453 0.771404,-0.21637 1.491119,-0.52215 2.159042,-0.91726 0.677329,-0.39511 1.288369,-0.86565 1.833996,-1.41128 0.555034,-0.55504 1.030127,-1.1666 1.425236,-1.83451 0.395109,-0.67734 0.700888,-1.40159 0.917257,-2.173 0.21637,-0.7714 0.324528,-1.57552 0.324528,-2.41277 0,-0.82785 -0.108158,-1.62793 -0.324528,-2.39934 -0.216369,-0.7714 -0.522148,-1.4906 -0.917257,-2.15852 -0.395109,-0.67733 -0.870202,-1.28889 -1.425236,-1.83452 -0.545627,-0.55503 -1.156667,-1.03012 -1.833996,-1.42523 -0.667923,-0.39511 -1.387638,-0.70089 -2.159042,-0.91726 -0.771403,-0.21637 -1.570972,-0.32453 -2.39882,-0.32453 z m 0,3.28766 c 0.790219,0 1.533177,0.15516 2.229322,0.4656 0.696144,0.30104 1.303156,0.71497 1.82056,1.24179 0.526812,0.52681 0.94075,1.13837 1.241785,1.83451 0.301036,0.69615 0.451135,1.43962 0.451135,2.22984 0,0.79022 -0.150099,1.53772 -0.451135,2.24327 -0.301035,0.70555 -0.714973,1.32672 -1.241785,1.86294 -0.517404,0.52681 -1.124416,0.94529 -1.82056,1.25574 -0.696145,0.30102 -1.439103,0.45165 -2.229322,0.45165 -0.790218,0 -1.538238,-0.15063 -2.24379,-0.45165 -0.696145,-0.31045 -1.303157,-0.72893 -1.820561,-1.25574 -0.517405,-0.52681 -0.92628,-1.13837 -1.227315,-1.83452 -0.301036,-0.70554 -0.451652,-1.45357 -0.451652,-2.24379 0,-0.79022 0.150616,-1.53317 0.451652,-2.22932 0.301035,-0.70555 0.70991,-1.32165 1.227315,-1.84846 0.517404,-0.53622 1.124416,-0.95522 1.820561,-1.25626 0.705552,-0.31044 1.453572,-0.4656 2.24379,-0.4656 z" />
    <path
       id="rect234"
       style="fill:#ffffff;fill-opacity:0.321569;stroke:#08205a;stroke-width:0"
       d="m 39.076536,124.72679 c -7.762754,0 -14.012065,6.24931 -14.012065,14.01206 v 13.9759 c 0,7.76275 6.249311,14.01206 14.012065,14.01206 H 151.05212 c 7.76277,0 14.01208,-6.24931 14.01208,-14.01206 v -13.9759 c 0,-7.76275 -6.24931,-14.01206 -14.01208,-14.01206 z m 20.795113,11.9264 c 0.348073,0 0.662941,0.0283 0.945162,0.0848 0.291628,0.0564 0.540796,0.15045 0.747758,0.28216 0.206962,0.12229 0.367186,0.29161 0.480074,0.50798 0.122296,0.21637 0.183451,0.4802 0.183451,0.79065 v 5.94072 h 8.39587 v -5.84202 c -0.0094,-0.18815 -0.03771,-0.37162 -0.08475,-0.55036 -0.04704,-0.18814 -0.07028,-0.36707 -0.07028,-0.5364 0,-0.10348 0.01415,-0.19749 0.04238,-0.28215 0.03763,-0.0847 0.09878,-0.15543 0.183451,-0.21187 0.08467,-0.0564 0.201915,-0.0984 0.352433,-0.12661 0.150518,-0.0376 0.343592,-0.0568 0.578776,-0.0568 0.301036,0 0.588116,0.0238 0.86093,0.0708 0.282221,0.047 0.531388,0.1365 0.747758,0.2682 0.216369,0.1223 0.385683,0.29161 0.507979,0.50798 0.131703,0.20696 0.197404,0.47989 0.197404,0.81856 v 14.73191 c 0,0.24459 -0.04246,0.47506 -0.127124,0.69143 -0.08467,0.20697 -0.201915,0.39043 -0.352433,0.55036 -0.141111,0.15992 -0.315487,0.28223 -0.522449,0.3669 -0.206962,0.0941 -0.427825,0.14108 -0.663009,0.14108 -0.244591,0 -0.470516,-0.047 -0.677478,-0.14108 -0.197554,-0.0941 -0.371414,-0.22145 -0.521932,-0.38137 -0.14111,-0.15993 -0.253814,-0.34339 -0.33848,-0.55036 -0.07526,-0.21637 -0.113172,-0.44177 -0.113172,-0.67696 v -5.46116 h -8.39587 v 5.46116 c 0,0.23519 -0.04246,0.46059 -0.127124,0.67696 -0.07526,0.20697 -0.183417,0.39043 -0.324528,0.55036 -0.14111,0.15992 -0.31497,0.2873 -0.521932,0.38137 -0.206962,0.0941 -0.437431,0.14108 -0.69143,0.14108 -0.253999,0 -0.484469,-0.047 -0.691431,-0.14108 -0.197555,-0.0941 -0.371931,-0.22145 -0.522449,-0.38137 -0.14111,-0.16933 -0.249269,-0.35735 -0.324528,-0.56431 -0.07526,-0.21637 -0.112654,-0.43723 -0.112654,-0.66301 v -14.63321 c -0.0094,-0.18815 -0.03771,-0.37162 -0.08475,-0.55036 -0.04704,-0.18814 -0.0708,-0.36707 -0.0708,-0.5364 0,-0.10348 0.01415,-0.19749 0.04237,-0.28215 0.02822,-0.0847 0.08029,-0.15543 0.155546,-0.21187 0.08467,-0.0564 0.19737,-0.0984 0.338481,-0.12661 0.150518,-0.0376 0.343592,-0.0568 0.578776,-0.0568 z m 38.311357,0 c 0.272813,0 0.503283,0.005 0.69143,0.0145 0.188148,0.009 0.352917,0.0326 0.494027,0.0703 0.150518,0.0376 0.28698,0.0988 0.40928,0.18345 0.12229,0.0753 0.249147,0.18342 0.380847,0.32453 l 5.84202,7.14014 c 0.79963,-0.97837 1.49103,-1.82494 2.07429,-2.5399 0.58326,-0.71496 1.07705,-1.32652 1.48156,-1.83451 0.41393,-0.51741 0.74801,-0.94044 1.00201,-1.26969 0.26341,-0.32926 0.47012,-0.59258 0.62063,-0.79014 0.15052,-0.20696 0.25868,-0.35758 0.32453,-0.45165 0.0658,-0.10348 0.11792,-0.17879 0.15555,-0.22583 0.0564,-0.0847 0.1176,-0.16452 0.18345,-0.23977 0.0658,-0.0847 0.15025,-0.15543 0.25373,-0.21188 0.11289,-0.0564 0.24481,-0.0989 0.39533,-0.12712 0.15992,-0.0282 0.35754,-0.0424 0.59272,-0.0424 0.46097,0 0.80868,0.0991 1.04387,0.29663 0.24459,0.18814 0.41897,0.43731 0.52245,0.74775 0.10348,0.31045 0.15503,0.66777 0.15503,1.07229 0.009,0.39511 0.014,0.79489 0.014,1.19941 v 13.16612 c 0,0.22578 -0.0419,0.4421 -0.12661,0.64906 -0.0753,0.19755 -0.18848,0.37141 -0.339,0.52193 -0.14111,0.15052 -0.31497,0.26828 -0.52193,0.35295 -0.20696,0.0941 -0.43288,0.14108 -0.67748,0.14108 -0.16933,0 -0.35279,-0.0328 -0.55035,-0.0987 -0.18815,-0.0659 -0.36655,-0.16492 -0.53588,-0.29662 -0.15993,-0.14111 -0.29185,-0.31497 -0.39533,-0.52193 -0.10348,-0.20696 -0.15503,-0.45613 -0.15503,-0.74776 v -11.27476 l -4.12068,5.30562 c -0.21637,0.2634 -0.43268,0.48933 -0.64905,0.67748 -0.21637,0.17874 -0.45139,0.26768 -0.70539,0.26768 -0.28222,0 -0.51775,-0.0798 -0.7059,-0.23978 -0.18814,-0.16933 -0.40901,-0.40435 -0.663,-0.70538 l -4.19096,-5.33404 v 5.99705 c 0.009,1.90028 0.0139,3.66925 0.0139,5.30613 0,0.22578 -0.0425,0.4421 -0.12712,0.64906 -0.0753,0.19755 -0.18797,0.37141 -0.33849,0.52193 -0.150507,0.15052 -0.329427,0.26828 -0.53639,0.35295 -0.197554,0.0941 -0.418417,0.14108 -0.663008,0.14108 -0.235185,0 -0.456047,-0.0425 -0.663009,-0.12713 -0.197555,-0.0847 -0.371931,-0.20243 -0.522449,-0.35295 -0.14111,-0.15052 -0.253814,-0.32437 -0.33848,-0.52193 -0.08467,-0.20696 -0.127124,-0.42782 -0.127124,-0.66301 v -3.48557 -3.81011 -3.82405 c 0,-1.27 -0.0045,-2.4648 -0.01395,-3.58428 0,-0.19755 -0.02831,-0.37648 -0.08475,-0.5364 -0.04704,-0.16933 -0.07028,-0.3528 -0.07028,-0.55036 0,-0.10348 0.01364,-0.19748 0.04186,-0.28215 0.02822,-0.0847 0.08483,-0.15491 0.169498,-0.21136 0.08467,-0.0659 0.202432,-0.11285 0.35295,-0.14107 0.150518,-0.0376 0.352683,-0.0568 0.606682,-0.0568 z m 20.954784,0 h 10.49859 c 0.36688,0 0.67266,0.0804 0.91725,0.2403 0.254,0.15052 0.44201,0.34307 0.56431,0.57826 0.1317,0.23518 0.19792,0.49396 0.19792,0.77618 0,0.27281 -0.0612,0.52704 -0.18345,0.76223 -0.1223,0.23518 -0.30576,0.43228 -0.55036,0.59221 -0.24459,0.15052 -0.55491,0.22582 -0.9312,0.22582 h -8.08582 v 4.34651 h 6.27921 c 0.254,0 0.49407,0.0611 0.71985,0.18345 0.22578,0.11289 0.40924,0.2635 0.55035,0.45165 0.15052,0.18815 0.24907,0.40447 0.29611,0.64906 0.0564,0.24459 0.0377,0.4983 -0.0563,0.76171 -0.11289,0.32926 -0.3009,0.58803 -0.5643,0.77618 -0.26341,0.17874 -0.57373,0.2682 -0.93121,0.2682 h -6.29368 v 4.20491 h 8.00107 c 0.24459,0 0.47506,0.0379 0.69143,0.11317 0.22577,0.0753 0.41833,0.18342 0.57826,0.32453 0.16933,0.14111 0.30125,0.31497 0.39532,0.52193 0.0941,0.20696 0.14108,0.4425 0.14108,0.7059 0,0.24459 -0.047,0.47 -0.14108,0.67696 -0.0941,0.20697 -0.22093,0.38589 -0.38085,0.5364 -0.15993,0.14111 -0.34846,0.24927 -0.56483,0.32453 -0.21637,0.0847 -0.44684,0.12713 -0.69143,0.12713 h -9.46815 c -0.59267,0 -1.05361,-0.17438 -1.38287,-0.52245 -0.32925,-0.35748 -0.49402,-0.82751 -0.49402,-1.41077 v -14.35106 c -0.009,-0.18815 -0.0423,-0.38122 -0.0987,-0.57878 -0.047,-0.20696 -0.0708,-0.40458 -0.0708,-0.59273 0,-0.20696 0.0708,-0.37121 0.21187,-0.49351 0.14111,-0.1317 0.42313,-0.19792 0.84646,-0.19792 z m -33.626362,0.0145 c 0.827848,0 1.627416,0.10816 2.39882,0.32453 0.771404,0.21637 1.491118,0.52215 2.159041,0.91726 0.67733,0.39511 1.288369,0.8702 1.833997,1.42523 0.555034,0.54563 1.030126,1.15719 1.425236,1.83452 0.395109,0.66792 0.700887,1.38712 0.917256,2.15852 0.21637,0.77141 0.324528,1.57149 0.324528,2.39934 0,0.83725 -0.108158,1.64137 -0.324528,2.41277 -0.216369,0.77141 -0.522147,1.49566 -0.917256,2.173 -0.39511,0.66792 -0.870202,1.27947 -1.425236,1.83451 -0.545628,0.54563 -1.156667,1.01617 -1.833997,1.41128 -0.667923,0.39511 -1.387637,0.70089 -2.159041,0.91726 -0.771404,0.21637 -1.570972,0.32453 -2.39882,0.32453 -1.25118,0 -2.427288,-0.23554 -3.52795,-0.7059 -1.100662,-0.47978 -2.064999,-1.12873 -2.892847,-1.94717 -0.818441,-0.82785 -1.467392,-1.79219 -1.947168,-2.89285 -0.470368,-1.10066 -0.7059,-2.27625 -0.7059,-3.52743 0,-0.82785 0.108675,-1.62793 0.325045,-2.39934 0.216369,-0.7714 0.52163,-1.4906 0.91674,-2.15852 0.395109,-0.67733 0.865656,-1.28889 1.411283,-1.83452 0.555035,-0.55503 1.16659,-1.03012 1.834513,-1.42523 0.677331,-0.39511 1.40159,-0.70089 2.172994,-0.91726 0.771404,-0.21637 1.576034,-0.32453 2.41329,-0.32453 z m 0,3.28766 c -0.790219,0 -1.538238,0.15516 -2.243791,0.4656 -0.696145,0.30104 -1.303156,0.72004 -1.820561,1.25626 -0.517405,0.52681 -0.926279,1.14291 -1.227315,1.84846 -0.301036,0.69615 -0.451652,1.4391 -0.451652,2.22932 0,0.79022 0.150616,1.53824 0.451652,2.24379 0.301036,0.69615 0.70991,1.30771 1.227315,1.83452 0.517405,0.52681 1.124416,0.94529 1.820561,1.25574 0.705553,0.30103 1.453572,0.45165 2.243791,0.45165 0.790219,0 1.533176,-0.15062 2.229321,-0.45165 0.696145,-0.31045 1.303156,-0.72893 1.820561,-1.25574 0.526812,-0.53622 0.940749,-1.15739 1.241784,-1.86294 0.301036,-0.70555 0.451136,-1.45305 0.451136,-2.24327 0,-0.79022 -0.1501,-1.53369 -0.451136,-2.22984 -0.301035,-0.69614 -0.714972,-1.3077 -1.241784,-1.83451 -0.517405,-0.52682 -1.124416,-0.94075 -1.820561,-1.24179 -0.696145,-0.31044 -1.439102,-0.4656 -2.229321,-0.4656 z" />
  </g>
</svg>
