<?xml version="1.0" encoding="UTF-8" standalone="no"?>
<svg
   width="88.953026"
   height="84.69516"
   viewBox="0 0 88.953026 84.695158"
   version="1.1"
   id="svg28"
   sodipodi:docname="ice-cream (1).svg"
   inkscape:version="1.2.2 (732a01da63, 2022-12-09)"
   xmlns:inkscape="http://www.inkscape.org/namespaces/inkscape"
   xmlns:sodipodi="http://sodipodi.sourceforge.net/DTD/sodipodi-0.dtd"
   xmlns="http://www.w3.org/2000/svg"
   xmlns:svg="http://www.w3.org/2000/svg">
  <defs
     id="defs32" />
  <sodipodi:namedview
     id="namedview30"
     pagecolor="#ffffff"
     bordercolor="#000000"
     borderopacity="0.25"
     inkscape:showpageshadow="2"
     inkscape:pageopacity="0.0"
     inkscape:pagecheckerboard="0"
     inkscape:deskcolor="#d1d1d1"
     showgrid="false"
     inkscape:zoom="4.8447863"
     inkscape:cx="43.75838"
     inkscape:cy="32.818785"
     inkscape:window-width="1920"
     inkscape:window-height="1057"
     inkscape:window-x="-8"
     inkscape:window-y="-8"
     inkscape:window-maximized="1"
     inkscape:current-layer="svg28" />
  <path
     fill="#6fa3b0"
     d="m 16.345838,30.660784 -10.1399998,5.77 -4.22,10.7 c 0,0 1.21,15.95 4.84,20.57 7.7602148,8.306174 18.6448058,17.2602 45.3921438,16.988335 0.54,-0.4 13.07,-0.490239 22.34,-7.770239 9.269996,-7.28 14.395041,-18.080911 14.395041,-27.070911 0,-8.99 -2.237185,-10.757185 -2.237185,-10.757185 l -10.4,-6.9 z"
     id="path2"
     sodipodi:nodetypes="cccccssccc"
     style="fill:#7f8aa0;fill-opacity:1" />
  <path
     fill="#bbced3"
     d="m 30.135838,64.570784 -19.3,-6.77 -8.0499998,-13.54 -1.39,-3.94 c 0,0 -3.27,8.42 0.2,18.66 3.47,10.24 17.4199998,24.05 42.5699998,24.05 24.34,0 35.26,-11.92 38.43,-17.09 6.29,-10.26 6.09,-20.26 6.09,-20.26 l -3.95,5.61 -7.77,7.41 -11.07,5.03 -18.29,2.93 z"
     id="path6"
     style="fill:#a8b4bf;fill-opacity:1" />
  <path
     fill="#fffffd"
     d="m 4.8658383,58.590784 c -1.21,0.53 1.04,6.87 7.6199997,12.36 6.58,5.49 13.84,8.3 14.66,7.3 0.82,-1.01 -8.15,-5.91 -11.49,-8.87 -5.58,-4.94 -9.3299997,-11.43 -10.7899997,-10.79 z"
     id="path8"
     sodipodi:nodetypes="csccc" />
  <path
     fill="#dfeef5"
     d="m 45.765838,68.340784 c -0.47,0 -0.94,0 -1.41,-0.01 -23,-0.34 -33.26,-7.25 -38.2599998,-12.54 -3.55,-3.76 -5.44999985,-7.96 -5.25999985,-12.52 0.47999985,-11.56 17.55999965,-15.33 18.26999965,-15.51 l 0.81,3.11 c -0.15,0.04 -14.2599998,4.57 -14.6199998,13.14 -0.14,3.45 1.03,5.97 3.82,8.92 6.3199998,6.69 19.3599998,10.91 36.2199998,11.15 26.93,0.42 38.75,-11.87 39.2,-18.8 0.39,-6.07 -7.61,-12.25 -15.3,-14.34 l 0.42,-3.29 c 9.2,2.5 19.17,8.83 19.1,17.24 -0.07,10.59 -13.94,23.45 -42.99,23.45 z"
     id="path10"
     style="fill:#c4cfd9;fill-opacity:1" />
  <g
     id="g482"
     transform="matrix(0.9343414,0,0,0.8382742,1.222976,0)">
    <path
       fill="#fea9a6"
       d="m 23.795838,32.56097 -4.69,0.35 c 0,0 -1.32,-3.4 0.42,-5.41 1.74,-2.01 4.44,-1.74 4.44,-1.74 0,0 -0.86,-8.39 4.1,-15.71 4.96,-7.3200001 12.38,-11.9700001 24.21,-9.28000017 12.63,2.87000007 16.38,15.24000017 16.38,15.24000017 l -2.35,12.11 -22.39,9.76 z"
       id="path12" />
    <path
       fill="#fe7c84"
       d="m 36.335838,33.78097 c 0,0 3.75,1.11 7.32,-1.22 2.31,-1.51 2.76,-3.23 2.76,-3.23 0,0 7.52,1.05 12.75,-2.78 5.23,-3.83 8.68,-12.56 8.68,-12.56 0,0 1.74,3.48 2.27,8.27 0.4,3.55 -0.15,5.69 -0.15,5.69 0,0 2.96,-0.78 4.62,2.96 1.59,3.6 -0.35,6.27 -0.35,6.27 l -35.71,3.66 z m 19.67,-17.81 c -0.81,-0.23 -1.49,0.58 -1.59,1.33 -0.11,0.74 0.05,1.65 1.06,1.86 1.01,0.21 1.43,-0.8 1.54,-1.59 0.11,-0.8 -0.26,-1.39 -1.01,-1.6 z m -16.78,-0.45 c -0.86,-0.24 -1.58,0.62 -1.69,1.41 -0.11,0.79 0.04,1.83 1.13,1.97 1.15,0.15 1.66,-0.89 1.66,-1.7 0,-0.85 -0.31,-1.45 -1.1,-1.68 z m 23.48,-5.29 c -0.77,-0.4500001 -1.43,0.11 -1.81,0.53 -0.37,0.42 -0.6,1.58 0.12,2.01 0.78,0.46 1.59,-0.03 1.95,-0.63 0.42,-0.71 0.33,-1.56 -0.26,-1.91 z m -19.21,-1.9900001 c -0.58,-0.58 -1.44,-0.43 -2.02,0.32 -0.53,0.69 -0.45,1.6400001 0.03,2.0600001 0.73,0.63 1.75,0 2.1,-0.58 0.4,-0.6500001 0.32,-1.3700001 -0.11,-1.8000001 z m -10.15,11.9600001 c -0.72,-0.46 -1.58,-0.13 -2.03,0.73 -0.42,0.8 -0.15,1.73 0.44,2.05 0.88,0.48 1.88,-0.34 2.06,-1 0.18,-0.64 0.06,-1.44 -0.47,-1.78 z"
       id="path14" />
  </g>
  <path
     fill="#ffebca"
     d="m 49.685838,33.610784 c 0,-0.3 6.28,-6.45 15.69,-5.73 11.47,0.87 15.59,9.08 15.59,9.08 l -0.65,9.53 -8,10.23 c 0,0 -10.17,3.01 -10.53,3.01 -0.36,0 -14.14,1.2 -14.14,1.2 l -2.83,-23.17 z"
     id="path16" />
  <path
     fill="#eac183"
     d="m 49.205838,58.880784 c 0.12,0.18 16.32,0.08 24.28,-8.67 8.14,-8.93 6.17,-15.29 6.23,-15.11 0.06,0.18 2.25,2.53 3.43,7.47 0.74,3.08 0.46,6.06 0.46,6.06 0,0 -3.38,7.52 -14.14,11.68 -12.76,4.93 -24.79,3.68 -24.79,3.68 z"
     id="path18" />
  <path
     fill="#eac183"
     d="m 68.185838,42.180784 c -0.76,-0.49 -1.65,0 -2.2,0.83 -0.55,0.83 -0.42,1.84 0.4,2.29 0.78,0.42 1.74,-0.06 2.18,-0.95 0.32,-0.63 0.43,-1.65 -0.38,-2.17 z"
     id="path20" />
  <path
     fill="#865c50"
     d="m 43.927556,59.380784 7.936349,-6.32 -0.149366,-12.11 3.744124,-5.79 c 0,0 -0.378395,-3.46 -3.216362,-4.74 -2.847925,-1.28 -5.994583,0.98 -5.994583,0.98 0,0 -7.57787,-8.56 -19.477415,-6.8 -11.083008,1.64 -16.101729,8.44 -18.2028199,13.36 -1.6828646,3.94 -0.9758623,10.86 -0.9758623,10.86 l 6.1439492,6.13 c 0,0 16.171433,4.66 18.421891,5.11 2.250458,0.45 11.770095,-0.68 11.770095,-0.68 z"
     id="path22"
     style="stroke-width:0.997887" />
  <path
     fill="#6c4d42"
     d="m 29.96675,53.780784 c 0,0 7.926392,4.3 13.592368,1.77 5.665976,-2.53 7.050107,-7.57 6.711543,-9.94 -0.338565,-2.37 -0.8962,-4.45 -0.8962,-4.45 0,0 2.409782,-1.75 3.704293,-3.66 1.294512,-1.91 1.364216,-5.1 1.364216,-5.1 0,0 2.210627,2.92 1.563371,7.51 -0.507846,3.6 -2.708516,5.42 -2.708516,5.42 0,0 3.076954,2.91 1.623118,8.39 -1.3443,5.07 -6.054329,6.48 -6.054329,6.48 0,0 0.497889,1.07 0.368438,2.1 -0.129451,1.03 -0.487931,1.82 -0.487931,1.82 0,0 -15.554051,0.82 -26.76651,-3.51 -11.760137,-4.56 -14.2296657,-9.64 -14.2296657,-9.64 0,0 -0.2887756,-3.06 -0.1792401,-2.83 0.1095356,0.23 5.5166088,5.92 12.3078148,6.88 6.791205,0.96 10.08723,-1.24 10.08723,-1.24 z"
     id="path24"
     style="stroke-width:0.997887" />
  <path
     fill="#6c4d42"
     d="m 21.915838,42.680784 c -0.86,-0.75 -2.1,-0.23 -2.64,0.5 -0.46,0.63 -0.8,1.88 0.03,2.57 1,0.83 2.07,0.1 2.54,-0.5 0.49,-0.63 0.83,-1.9 0.07,-2.57 z m 1.57,-9.72 c -0.79,1.18 0,2.3 0.57,2.57 0.77,0.37 1.84,-0.07 2.27,-0.97 0.43,-0.9 0.52,-1.85 -0.47,-2.44 -0.91,-0.52 -1.91,0.14 -2.37,0.84 z m 12.45,10.29 c -1.12,-0.6 -1.9,0.3 -2.27,0.97 -0.37,0.67 -0.57,1.94 0.6,2.54 1.17,0.6 2.1,-0.52 2.3,-1 0.37,-0.87 0.37,-1.98 -0.63,-2.51 z"
     id="path26" />
</svg>
