<?xml version="1.0" encoding="UTF-8" standalone="no"?>
<!-- Created with Inkscape (http://www.inkscape.org/) -->

<svg
   width="139.99973mm"
   height="42.000023mm"
   viewBox="0 0 139.99973 42.000023"
   version="1.1"
   id="svg5"
   inkscape:version="1.2.2 (732a01da63, 2022-12-09)"
   sodipodi:docname="shop.svg"
   xmlns:inkscape="http://www.inkscape.org/namespaces/inkscape"
   xmlns:sodipodi="http://sodipodi.sourceforge.net/DTD/sodipodi-0.dtd"
   xmlns="http://www.w3.org/2000/svg"
   xmlns:svg="http://www.w3.org/2000/svg">
  <sodipodi:namedview
     id="namedview7"
     pagecolor="#ffffff"
     bordercolor="#000000"
     borderopacity="0.25"
     inkscape:showpageshadow="2"
     inkscape:pageopacity="0.0"
     inkscape:pagecheckerboard="true"
     inkscape:deskcolor="#d1d1d1"
     inkscape:document-units="mm"
     showgrid="true"
     inkscape:zoom="1.5625561"
     inkscape:cx="234.55158"
     inkscape:cy="71.037449"
     inkscape:window-width="1920"
     inkscape:window-height="1057"
     inkscape:window-x="-8"
     inkscape:window-y="-8"
     inkscape:window-maximized="1"
     inkscape:current-layer="layer1" />
  <defs
     id="defs2">
    <rect
       x="135.67513"
       y="318.06857"
       width="449.26385"
       height="140.79494"
       id="rect2036" />
  </defs>
  <g
     inkscape:label="Layer 1"
     inkscape:groupmode="layer"
     id="layer1"
     transform="translate(-25.140583,-124.65389)">
    <path
       id="rect234"
       style="fill:#ffffff;fill-opacity:1;stroke:#08205a;stroke-width:0"
       d="m 39.152649,124.65389 c -7.762754,0 -14.012065,6.24931 -14.012065,14.01206 v 13.9759 c 0,7.76275 6.249311,14.01206 14.012065,14.01206 H 151.12824 c 7.76276,0 14.01207,-6.24931 14.01207,-14.01206 v -13.9759 c 0,-7.76275 -6.24931,-14.01206 -14.01207,-14.01206 z m 77.183401,11.87008 h 5.15059 c 0.96896,0 1.89084,0.17892 2.76572,0.5364 0.87489,0.34807 1.64161,0.82771 2.30012,1.43919 0.65852,0.61148 1.18061,1.33573 1.56631,2.17299 0.39511,0.83726 0.59273,1.74044 0.59273,2.7094 0,0.96895 -0.19762,1.85798 -0.59273,2.66702 -0.3857,0.80903 -0.90779,1.51005 -1.56631,2.10271 -0.65851,0.58326 -1.42523,1.03965 -2.30012,1.36891 -0.87488,0.32926 -1.79676,0.49351 -2.76572,0.49351 h -2.836 v 3.09025 c 0,0.23518 -0.0425,0.45656 -0.12713,0.66353 -0.0847,0.19755 -0.20243,0.37141 -0.35295,0.52193 -0.15051,0.15052 -0.32892,0.26828 -0.53588,0.35295 -0.19755,0.0847 -0.41439,0.12712 -0.64957,0.12712 -0.23519,0 -0.45605,-0.0425 -0.66301,-0.12712 -0.19756,-0.0847 -0.37142,-0.20243 -0.52193,-0.35295 -0.14111,-0.15052 -0.25433,-0.32438 -0.339,-0.52193 -0.0847,-0.20697 -0.12661,-0.42835 -0.12661,-0.66353 V 138.2882 c -0.009,-0.18815 -0.0377,-0.37161 -0.0847,-0.55035 -0.047,-0.18815 -0.0708,-0.36707 -0.0708,-0.53641 0,-0.10348 0.0142,-0.19748 0.0424,-0.28215 0.0376,-0.0847 0.0988,-0.15543 0.18345,-0.21187 0.0847,-0.0565 0.20243,-0.0989 0.35295,-0.12713 0.15052,-0.0376 0.34308,-0.0563 0.57826,-0.0563 z m -38.452432,0.0987 c 0.348073,0 0.662941,0.0283 0.945162,0.0848 0.291628,0.0564 0.541313,0.15045 0.748275,0.28215 0.206962,0.1223 0.366669,0.29161 0.479557,0.50798 0.122296,0.21637 0.183451,0.48021 0.183451,0.79065 v 5.94072 h 8.396387 v -5.84202 c -0.0094,-0.18815 -0.03771,-0.37161 -0.08475,-0.55035 -0.04704,-0.18815 -0.0708,-0.36707 -0.0708,-0.5364 0,-0.10348 0.01415,-0.19749 0.04238,-0.28216 0.03763,-0.0847 0.09878,-0.15543 0.183451,-0.21187 0.08467,-0.0564 0.202432,-0.0984 0.35295,-0.12661 0.150518,-0.0376 0.343075,-0.0568 0.578259,-0.0568 0.301036,0 0.588116,0.0238 0.86093,0.0708 0.282221,0.047 0.531388,0.13649 0.747758,0.2682 0.216369,0.12229 0.385683,0.29161 0.507979,0.50798 0.131703,0.20696 0.197921,0.47988 0.197921,0.81855 v 14.73192 c 0,0.24459 -0.04246,0.47506 -0.127124,0.69143 -0.08467,0.20696 -0.202432,0.39043 -0.35295,0.55035 -0.141111,0.15993 -0.31497,0.28224 -0.521932,0.3669 -0.206962,0.0941 -0.428341,0.14108 -0.663526,0.14108 -0.244591,0 -0.469999,-0.047 -0.676961,-0.14108 -0.197555,-0.0941 -0.371931,-0.22144 -0.522449,-0.38137 -0.14111,-0.15992 -0.253814,-0.34339 -0.33848,-0.55035 -0.07526,-0.21637 -0.112655,-0.44178 -0.112655,-0.67696 v -5.46117 h -8.396387 v 5.46117 c 0,0.23518 -0.04246,0.46059 -0.127124,0.67696 -0.07526,0.20696 -0.183417,0.39043 -0.324528,0.55035 -0.14111,0.15993 -0.314969,0.2873 -0.521932,0.38137 -0.206962,0.0941 -0.437431,0.14108 -0.69143,0.14108 -0.253999,0 -0.484469,-0.047 -0.691431,-0.14108 -0.197555,-0.0941 -0.371414,-0.22144 -0.521932,-0.38137 -0.14111,-0.16933 -0.249269,-0.35734 -0.324528,-0.5643 -0.07526,-0.21637 -0.113171,-0.43724 -0.113171,-0.66301 V 138.3869 c -0.0094,-0.18815 -0.03771,-0.37161 -0.08475,-0.55035 -0.04704,-0.18815 -0.07028,-0.36707 -0.07028,-0.5364 0,-0.10348 0.01415,-0.19749 0.04237,-0.28216 0.02822,-0.0847 0.07977,-0.15543 0.155029,-0.21187 0.08467,-0.0564 0.197371,-0.0984 0.338481,-0.12661 0.150518,-0.0376 0.343592,-0.0568 0.578776,-0.0568 z m 25.639782,0.0145 c 0.82785,0 1.62741,0.10816 2.39882,0.32453 0.7714,0.21637 1.49112,0.52214 2.15904,0.91725 0.67733,0.39511 1.28888,0.8702 1.83451,1.42524 0.55504,0.54563 1.03013,1.15666 1.42524,1.834 0.39511,0.66792 0.70088,1.38763 0.91725,2.15904 0.21637,0.7714 0.32453,1.57097 0.32453,2.39882 0,0.83725 -0.10816,1.64188 -0.32453,2.41329 -0.21637,0.7714 -0.52214,1.49566 -0.91725,2.17299 -0.39511,0.66792 -0.8702,1.27948 -1.42524,1.83451 -0.54563,0.54563 -1.15718,1.01618 -1.83451,1.41129 -0.66792,0.39511 -1.38764,0.70088 -2.15904,0.91725 -0.77141,0.21637 -1.57097,0.32453 -2.39882,0.32453 -1.25118,0 -2.42729,-0.23553 -3.527953,-0.7059 -1.100662,-0.47977 -2.064999,-1.12873 -2.892847,-1.94717 -0.818441,-0.82785 -1.467392,-1.79218 -1.947168,-2.89284 -0.470368,-1.10067 -0.705383,-2.27677 -0.705383,-3.52795 0,-0.82785 0.108158,-1.62742 0.324528,-2.39882 0.216369,-0.77141 0.522147,-1.49112 0.917256,-2.15904 0.39511,-0.67734 0.86514,-1.28837 1.410767,-1.834 0.555035,-0.55504 1.16659,-1.03013 1.834513,-1.42524 0.677331,-0.39511 1.402107,-0.70088 2.173507,-0.91725 0.77141,-0.21637 1.57552,-0.32453 2.41278,-0.32453 z m -35.48931,0.014 c 0.423332,0 0.855966,0.047 1.298112,0.14108 0.442146,0.0941 0.874781,0.22599 1.298112,0.39532 0.423332,0.16933 0.81857,0.36644 1.185457,0.59221 0.366888,0.22578 0.691363,0.47546 0.973584,0.74828 0.282221,0.2634 0.503601,0.54088 0.663526,0.83251 0.159925,0.29162 0.239779,0.58325 0.239779,0.87488 0,0.27281 -0.04246,0.49874 -0.127125,0.67748 -0.08467,0.16933 -0.19737,0.31034 -0.33848,0.42323 -0.141111,0.10348 -0.310425,0.17879 -0.507979,0.22582 -0.188148,0.047 -0.390312,0.0703 -0.606682,0.0703 -0.131703,0.009 -0.259076,0.009 -0.381372,0 -0.112888,-0.0188 -0.230137,-0.0517 -0.352433,-0.0987 -0.112889,-0.047 -0.230654,-0.11274 -0.35295,-0.1974 -0.122296,-0.0847 -0.254214,-0.19283 -0.395325,-0.32453 -0.470368,-0.47978 -0.9217,-0.84217 -1.354439,-1.08676 -0.423332,-0.254 -0.912576,-0.38085 -1.467611,-0.38085 -0.282221,0 -0.573846,0.0425 -0.874882,0.12712 -0.301036,0.0847 -0.573963,0.20698 -0.818555,0.3669 -0.235184,0.15052 -0.432803,0.34308 -0.592728,0.57826 -0.150518,0.23519 -0.225826,0.49851 -0.225826,0.79014 0,0.34807 0.127373,0.66345 0.381372,0.94567 0.253999,0.27282 0.592627,0.53159 1.015959,0.77618 0.423331,0.23519 0.902968,0.4702 1.439188,0.70539 0.53622,0.23518 1.082075,0.48435 1.63711,0.74776 0.555034,0.25399 1.100372,0.53653 1.636592,0.84697 0.53622,0.30104 1.015857,0.64876 1.439189,1.04387 0.423331,0.3857 0.762476,0.82794 1.016475,1.32653 0.253999,0.49859 0.380856,1.07275 0.380856,1.72186 0,0.83725 -0.193074,1.58476 -0.578777,2.24327 -0.385702,0.64911 -0.889099,1.19951 -1.509985,1.65107 -0.620886,0.44214 -1.321386,0.78077 -2.102197,1.01595 -0.771404,0.23519 -1.552274,0.35295 -2.342493,0.35295 -0.950144,0 -1.787624,-0.1127 -2.511991,-0.33848 -0.724367,-0.22577 -1.340468,-0.5174 -1.848466,-0.87488 -0.498591,-0.36689 -0.893829,-0.77173 -1.185458,-1.21388 -0.291628,-0.44214 -0.484185,-0.87932 -0.578259,-1.31206 -0.02822,-0.22578 -0.01913,-0.4421 0.0279,-0.64906 0.04704,-0.20696 0.127407,-0.39043 0.240296,-0.55035 0.122296,-0.15993 0.277457,-0.2873 0.465605,-0.38137 0.188147,-0.10349 0.409009,-0.15503 0.663008,-0.15503 0.244592,0 0.484669,0.0657 0.719853,0.1974 0.244591,0.1223 0.493759,0.29667 0.747758,0.52245 0.131703,0.21637 0.310624,0.42308 0.536401,0.62063 0.225777,0.18815 0.47949,0.35746 0.761711,0.50798 0.291628,0.15052 0.602468,0.27283 0.931726,0.3669 0.338665,0.0847 0.686384,0.12713 1.043864,0.12713 0.348072,0 0.696308,-0.0425 1.044381,-0.12713 0.357479,-0.0941 0.67741,-0.22599 0.959631,-0.39532 0.291628,-0.17874 0.526643,-0.39506 0.705383,-0.64906 0.188147,-0.2634 0.282153,-0.56412 0.282153,-0.90278 0,-0.34808 -0.126856,-0.65385 -0.380855,-0.91726 -0.244591,-0.27281 -0.569067,-0.52704 -0.973584,-0.76223 -0.395109,-0.23518 -0.851503,-0.46059 -1.368909,-0.67696 -0.517405,-0.21637 -1.049107,-0.44684 -1.594734,-0.69143 -0.53622,-0.254 -1.06286,-0.52693 -1.580266,-0.81855 -0.517405,-0.30104 -0.978344,-0.64473 -1.382861,-1.03043 -0.395109,-0.39511 -0.719585,-0.8419 -0.973584,-1.34049 -0.244591,-0.508 -0.366902,-1.09125 -0.366902,-1.74976 0,-0.73378 0.145554,-1.40143 0.437182,-2.0035 0.301036,-0.61148 0.714972,-1.13357 1.241785,-1.56631 0.53622,-0.43274 1.166473,-0.76682 1.89084,-1.00201 0.724368,-0.24459 1.514845,-0.3669 2.370915,-0.3669 z m 50.5597,2.87838 v 7.59178 h 2.89285 c 0.54563,0 1.05863,-0.0844 1.53841,-0.25373 0.47977,-0.17874 0.89826,-0.42791 1.25574,-0.74776 0.36688,-0.31985 0.65396,-0.70093 0.86093,-1.14308 0.20696,-0.45155 0.31005,-0.95495 0.31005,-1.50998 0,-0.54563 -0.10309,-1.05357 -0.31005,-1.52394 -0.20697,-0.47978 -0.49405,-0.89826 -0.86093,-1.25574 -0.35748,-0.35748 -0.77597,-0.64001 -1.25574,-0.84698 -0.47978,-0.20696 -0.99278,-0.31057 -1.53841,-0.31057 z m -15.07039,0.39532 c -0.79022,0 -1.53824,0.15516 -2.24379,0.46561 -0.69615,0.30103 -1.302643,0.71951 -1.820048,1.25573 -0.517405,0.52682 -0.926796,1.14343 -1.227832,1.84899 -0.301036,0.69614 -0.451652,1.4391 -0.451652,2.22932 0,0.79022 0.150616,1.53824 0.451652,2.24379 0.301036,0.69614 0.710427,1.3077 1.227832,1.83451 0.517405,0.52682 1.123898,0.9453 1.820048,1.25574 0.70555,0.30104 1.45357,0.45165 2.24379,0.45165 0.79022,0 1.53317,-0.15061 2.22932,-0.45165 0.69614,-0.31044 1.30315,-0.72892 1.82056,-1.25574 0.52681,-0.53622 0.94075,-1.15738 1.24178,-1.86293 0.30104,-0.70556 0.45166,-1.45357 0.45166,-2.24379 0,-0.79022 -0.15062,-1.53318 -0.45166,-2.22932 -0.30103,-0.69615 -0.71497,-1.30771 -1.24178,-1.83452 -0.51741,-0.52681 -1.12442,-0.94075 -1.82056,-1.24178 -0.69615,-0.31045 -1.4391,-0.46561 -2.22932,-0.46561 z" />
  </g>
</svg>
